<svg width="890" height="490" viewBox="0 0 890 490" fill="none" xmlns="http://www.w3.org/2000/svg">
<g opacity="0.3">
<circle cx="2" cy="2" r="2" fill="#D9D9D9"/>
<circle cx="83" cy="2" r="2" fill="#D9D9D9"/>
<circle cx="164" cy="2" r="2" fill="#D9D9D9"/>
<circle cx="245" cy="2" r="2" fill="#D9D9D9"/>
<circle cx="326" cy="2" r="2" fill="#D9D9D9"/>
<circle cx="407" cy="2" r="2" fill="#D9D9D9"/>
<circle cx="488" cy="2" r="2" fill="#D9D9D9"/>
<circle cx="569" cy="2" r="2" fill="#D9D9D9"/>
<circle cx="650" cy="2" r="2" fill="#D9D9D9"/>
<circle cx="731" cy="2" r="2" fill="#D9D9D9"/>
<circle cx="812" cy="2" r="2" fill="#D9D9D9"/>
<circle cx="2" cy="83" r="2" fill="#D9D9D9"/>
<circle cx="83" cy="83" r="2" fill="#D9D9D9"/>
<circle cx="164" cy="83" r="2" fill="#D9D9D9"/>
<circle cx="245" cy="83" r="2" fill="#D9D9D9"/>
<circle cx="326" cy="83" r="2" fill="#D9D9D9"/>
<circle cx="407" cy="83" r="2" fill="#D9D9D9"/>
<circle cx="488" cy="83" r="2" fill="#D9D9D9"/>
<circle cx="569" cy="83" r="2" fill="#D9D9D9"/>
<circle cx="650" cy="83" r="2" fill="#D9D9D9"/>
<circle cx="731" cy="83" r="2" fill="#D9D9D9"/>
<circle cx="812" cy="83" r="2" fill="#D9D9D9"/>
<circle cx="2" cy="164" r="2" fill="#D9D9D9"/>
<circle cx="83" cy="164" r="2" fill="#D9D9D9"/>
<circle cx="164" cy="164" r="2" fill="#D9D9D9"/>
<circle cx="245" cy="164" r="2" fill="#D9D9D9"/>
<circle cx="326" cy="164" r="2" fill="#D9D9D9"/>
<circle cx="407" cy="164" r="2" fill="#D9D9D9"/>
<circle cx="488" cy="164" r="2" fill="#D9D9D9"/>
<circle cx="569" cy="164" r="2" fill="#D9D9D9"/>
<circle cx="650" cy="164" r="2" fill="#D9D9D9"/>
<circle cx="731" cy="164" r="2" fill="#D9D9D9"/>
<circle cx="812" cy="164" r="2" fill="#D9D9D9"/>
<circle cx="2" cy="245" r="2" fill="#D9D9D9"/>
<circle cx="83" cy="245" r="2" fill="#D9D9D9"/>
<circle cx="164" cy="245" r="2" fill="#D9D9D9"/>
<circle cx="245" cy="245" r="2" fill="#D9D9D9"/>
<circle cx="326" cy="245" r="2" fill="#D9D9D9"/>
<circle cx="407" cy="245" r="2" fill="#D9D9D9"/>
<circle cx="488" cy="245" r="2" fill="#D9D9D9"/>
<circle cx="569" cy="245" r="2" fill="#D9D9D9"/>
<circle cx="650" cy="245" r="2" fill="#D9D9D9"/>
<circle cx="731" cy="245" r="2" fill="#D9D9D9"/>
<circle cx="812" cy="245" r="2" fill="#D9D9D9"/>
<circle cx="2" cy="326" r="2" fill="#D9D9D9"/>
<circle cx="83" cy="326" r="2" fill="#D9D9D9"/>
<circle cx="164" cy="326" r="2" fill="#D9D9D9"/>
<circle cx="245" cy="326" r="2" fill="#D9D9D9"/>
<circle cx="326" cy="326" r="2" fill="#D9D9D9"/>
<circle cx="407" cy="326" r="2" fill="#D9D9D9"/>
<circle cx="488" cy="326" r="2" fill="#D9D9D9"/>
<circle cx="569" cy="326" r="2" fill="#D9D9D9"/>
<circle cx="650" cy="326" r="2" fill="#D9D9D9"/>
<circle cx="731" cy="326" r="2" fill="#D9D9D9"/>
<circle cx="812" cy="326" r="2" fill="#D9D9D9"/>
<circle cx="2" cy="407" r="2" fill="#D9D9D9"/>
<circle cx="83" cy="407" r="2" fill="#D9D9D9"/>
<circle cx="164" cy="407" r="2" fill="#D9D9D9"/>
<circle cx="245" cy="407" r="2" fill="#D9D9D9"/>
<circle cx="326" cy="407" r="2" fill="#D9D9D9"/>
<circle cx="407" cy="407" r="2" fill="#D9D9D9"/>
<circle cx="488" cy="407" r="2" fill="#D9D9D9"/>
<circle cx="569" cy="407" r="2" fill="#D9D9D9"/>
<circle cx="650" cy="407" r="2" fill="#D9D9D9"/>
<circle cx="731" cy="407" r="2" fill="#D9D9D9"/>
<circle cx="812" cy="407" r="2" fill="#D9D9D9"/>
<circle cx="2" cy="488" r="2" fill="#D9D9D9"/>
<circle cx="83" cy="488" r="2" fill="#D9D9D9"/>
<circle cx="164" cy="488" r="2" fill="#D9D9D9"/>
<circle cx="245" cy="488" r="2" fill="#D9D9D9"/>
<circle cx="326" cy="488" r="2" fill="#D9D9D9"/>
<circle cx="407" cy="488" r="2" fill="#D9D9D9"/>
<circle cx="488" cy="488" r="2" fill="#D9D9D9"/>
<circle cx="569" cy="488" r="2" fill="#D9D9D9"/>
<circle cx="650" cy="488" r="2" fill="#D9D9D9"/>
<circle cx="731" cy="488" r="2" fill="#D9D9D9"/>
<circle cx="812" cy="488" r="2" fill="#D9D9D9"/>
</g>
</svg>
