<svg width="1443" height="718" viewBox="0 0 1443 718" fill="none" xmlns="http://www.w3.org/2000/svg">
<path d="M191.296 12.6358C188.133 29.332 191.507 62.5137 230.313 61.6701V52.1796H279.874V1.03629C294.637 0.333288 324.269 9.57774 324.691 52.1796H305.182C303.952 43.9193 292.739 27.5043 257.73 27.9261V75.9058H279.874V147.085H238.222L257.73 125.995L287.783 158.157L264.057 182.938V138.649C269.681 129.861 286.307 117.559 307.819 138.649V169.229C312.388 169.405 321.843 167.12 323.109 156.575V129.685H346.308V182.938L385.852 156.575L358.962 129.685L305.182 182.938H336.817V255.698C347.362 255.874 368.347 265.821 367.925 304.205H230.313V258.334H243.494V313.168H206.059V332.149H215.55V276.261H234.531L248.239 287.86H270.384V225.645C270.911 233.729 269.118 249.898 257.73 249.898C246.341 249.898 237.519 249.898 234.531 249.898V255.698H182.333C174.424 256.401 158.29 254.327 157.025 240.408C155.76 226.488 170.909 224.766 178.642 225.645H147.007V255.698H157.025C158.079 260.795 156.076 270.988 139.625 270.988V287.86H121.172V240.408H133.298C135.407 246.383 131.506 258.334 99.0271 258.334V310.005H71.0828V334.786H93.7546V324.241H151.225V349.021C138.395 352.185 113.157 348.811 114.845 310.005C111.857 309.478 105.881 314.223 105.881 337.422C105.881 360.621 105.881 370.287 105.881 372.22H133.298V353.239H32.0663V307.369H2.01306C-1.15044 317.386 1.27491 337.422 36.2843 337.422H398.505V324.241H340.508C338.223 333.907 337.977 353.239 355.271 353.239C372.565 353.239 388.136 353.239 393.76 353.239C396.748 362.554 395.764 381.184 367.925 381.184V398.583H416.959V294.187C416.783 286.454 422.443 270.567 446.485 268.879V294.187H472.848V276.261H478.647V255.698C473.551 257.104 463.463 252.218 463.884 221.427C475.132 219.669 497.839 220.372 498.683 237.244H481.284V199.282H511.864V253.589H494.992V270.988H484.447V353.239C489.192 350.779 498.683 351.13 498.683 372.22C504.307 370.463 515.871 371.799 517.137 391.201C523.112 390.323 535.274 393.416 536.118 412.819H550.881V403.855C559.668 404.734 577.243 403.961 577.243 393.838H566.171V337.422H619.95V359.566C613.272 361.324 600.02 357.774 600.442 329.513H583.043V376.438H697.983V294.187H679.002V315.277H716.964C719.073 305.963 718.863 286.49 701.147 283.115H687.438V349.021H659.494V337.422H737V359.566H712.219V349.021" stroke="#757C87" stroke-width="2"/>
<path d="M546.704 705.24C549.867 688.544 546.493 655.362 507.687 656.206V665.696H458.126V716.84C443.363 717.543 413.731 708.298 413.309 665.696H432.818C434.048 673.957 445.261 690.372 480.27 689.95V641.97H458.126V570.791H499.778L480.27 591.881L450.217 559.719L473.943 534.938V579.227C468.319 588.015 451.693 600.317 430.181 579.227V548.647C425.612 548.471 416.157 550.756 414.891 561.301V588.191H391.692V534.938L352.148 561.301L379.038 588.191L432.818 534.938H401.183V462.178C390.638 462.002 369.653 452.055 370.075 413.671H507.687V459.542H494.506V404.708H531.941V385.727H522.45V441.615H503.469L489.761 430.016H467.616V492.231C467.089 484.147 468.882 467.978 480.27 467.978C491.659 467.978 500.481 467.978 503.469 467.978V462.178H555.667C563.576 461.475 579.71 463.549 580.975 477.468C582.24 491.388 567.091 493.11 559.358 492.231H590.993V462.178H580.975C579.921 457.081 581.924 446.888 598.375 446.888V430.016H616.828V477.468H604.702C602.593 471.493 606.494 459.542 638.973 459.542V407.871H666.917V383.09H644.245V393.635H586.775V368.855C599.605 365.691 624.843 369.065 623.155 407.871C626.143 408.398 632.119 403.653 632.119 380.454C632.119 357.255 632.119 347.589 632.119 345.656H604.702V364.637H705.934V410.507H735.987C739.15 400.49 736.725 380.454 701.716 380.454H339.495V393.635H397.492C399.777 383.969 400.023 364.637 382.729 364.637C365.435 364.637 349.864 364.637 344.24 364.637C341.252 355.322 342.236 336.692 370.075 336.692V319.293H321.041V423.689C321.217 431.422 315.557 447.309 291.515 448.997V423.689H265.152V441.615H259.353V462.178C264.449 460.772 274.537 465.658 274.116 496.449C262.868 498.207 240.161 497.504 239.317 480.632H256.716V518.594H226.136V464.287H243.008V446.888H253.553V364.637C248.808 367.097 239.317 366.746 239.317 345.656C233.693 347.413 222.129 346.077 220.863 326.675C214.888 327.553 202.726 324.46 201.882 305.057H187.119V314.021C178.332 313.142 160.757 313.915 160.757 324.038H171.829V380.454H118.05V358.31C124.728 356.552 137.98 360.102 137.558 388.363H154.957V341.438H40.0165V423.689H58.9975V402.599H21.0355C18.9265 411.913 19.1374 431.386 36.853 434.761H50.5615V368.855H78.5058V380.454H1.00004V358.31H25.7808V368.855" stroke="#757C87" stroke-width="2"/>
<path d="M1251.7 12.6358C1254.87 29.332 1251.49 62.5137 1212.69 61.6701V52.1796H1163.13V1.03629C1148.36 0.333288 1118.73 9.57774 1118.31 52.1796H1137.82C1139.05 43.9193 1150.26 27.5043 1185.27 27.9261V75.9058H1163.13V147.085H1204.78L1185.27 125.995L1155.22 158.157L1178.94 182.938V138.649C1173.32 129.861 1156.69 117.559 1135.18 138.649V169.229C1130.61 169.405 1121.16 167.12 1119.89 156.575V129.685H1096.69V182.938L1057.15 156.575L1084.04 129.685L1137.82 182.938H1106.18V255.698C1095.64 255.874 1074.65 265.821 1075.07 304.205H1212.69V258.334H1199.51V313.168H1236.94V332.149H1227.45V276.261H1208.47L1194.76 287.86H1172.62V225.645C1172.09 233.729 1173.88 249.898 1185.27 249.898C1196.66 249.898 1205.48 249.898 1208.47 249.898V255.698H1260.67C1268.58 256.401 1284.71 254.327 1285.97 240.408C1287.24 226.488 1272.09 224.766 1264.36 225.645H1295.99V255.698H1285.97C1284.92 260.795 1286.92 270.988 1303.37 270.988V287.86H1321.83V240.408H1309.7C1307.59 246.383 1311.49 258.334 1343.97 258.334V310.005H1371.92V334.786H1349.25V324.241H1291.78V349.021C1304.6 352.185 1329.84 348.811 1328.16 310.005C1331.14 309.478 1337.12 314.223 1337.12 337.422C1337.12 360.621 1337.12 370.287 1337.12 372.22H1309.7V353.239H1410.93V307.369H1440.99C1444.15 317.386 1441.73 337.422 1406.72 337.422H1044.49V324.241H1102.49C1104.78 333.907 1105.02 353.239 1087.73 353.239C1070.44 353.239 1054.86 353.239 1049.24 353.239C1046.25 362.554 1047.24 381.184 1075.07 381.184V398.583H1026.04V294.187C1026.22 286.454 1020.56 270.567 996.515 268.879V294.187H970.152V276.261H964.353V255.698C969.449 257.104 979.537 252.218 979.116 221.427C967.868 219.669 945.161 220.372 944.317 237.244H961.716V199.282H931.136V253.589H948.008V270.988H958.553V353.239C953.808 350.779 944.317 351.13 944.317 372.22C938.693 370.463 927.129 371.799 925.863 391.201C919.888 390.323 907.726 393.416 906.882 412.819H892.119V403.855C883.332 404.734 865.757 403.961 865.757 393.838H876.829V337.422H823.05V359.566C829.728 361.324 842.98 357.774 842.558 329.513H859.957V376.438H745.017V294.187H763.998V315.277H726.036C723.927 305.963 724.137 286.49 741.853 283.115H755.562V349.021H783.506V337.422H706V359.566H730.781V349.021" stroke="#757C87" stroke-width="2"/>
<path d="M896.296 705.24C893.133 688.544 896.507 655.362 935.313 656.206V665.696H984.874V716.84C999.637 717.543 1029.27 708.298 1029.69 665.696H1010.18C1008.95 673.957 997.739 690.372 962.73 689.95V641.97H984.874V570.791H943.222L962.73 591.881L992.783 559.719L969.057 534.938V579.227C974.681 588.015 991.307 600.317 1012.82 579.227V548.647C1017.39 548.471 1026.84 550.756 1028.11 561.301V588.191H1051.31V534.938L1090.85 561.301L1063.96 588.191L1010.18 534.938H1041.82V462.178C1052.36 462.002 1073.35 452.055 1072.93 413.671H935.313V459.542H948.494V404.708H911.059V385.727H920.55V441.615H939.531L953.239 430.016H975.384V492.231C975.911 484.147 974.118 467.978 962.73 467.978C951.341 467.978 942.519 467.978 939.531 467.978V462.178H887.333C879.424 461.475 863.29 463.549 862.025 477.468C860.76 491.388 875.909 493.11 883.642 492.231H852.007V462.178H862.025C863.079 457.081 861.076 446.888 844.625 446.888V430.016H826.172V477.468H838.298C840.407 471.493 836.506 459.542 804.027 459.542V407.871H776.083V383.09H798.755V393.635H856.225V368.855C843.395 365.691 818.157 369.065 819.845 407.871C816.857 408.398 810.881 403.653 810.881 380.454C810.881 357.255 810.881 347.589 810.881 345.656H838.298V364.637H737.066V410.507H707.013C703.85 400.49 706.275 380.454 741.284 380.454H1103.51V393.635H1045.51C1043.22 383.969 1042.98 364.637 1060.27 364.637C1077.56 364.637 1093.14 364.637 1098.76 364.637C1101.75 355.322 1100.76 336.692 1072.93 336.692V319.293H1121.96V423.689C1121.78 431.422 1127.44 447.309 1151.49 448.997V423.689H1177.85V441.615H1183.65V462.178C1178.55 460.772 1168.46 465.658 1168.88 496.449C1180.13 498.207 1202.84 497.504 1203.68 480.632H1186.28V518.594H1216.86V464.287H1199.99V446.888H1189.45V364.637C1194.19 367.097 1203.68 366.746 1203.68 345.656C1209.31 347.413 1220.87 346.077 1222.14 326.675C1228.11 327.553 1240.27 324.46 1241.12 305.057H1255.88V314.021C1264.67 313.142 1282.24 313.915 1282.24 324.038H1271.17V380.454H1324.95V358.31C1318.27 356.552 1305.02 360.102 1305.44 388.363H1288.04V341.438H1402.98V423.689H1384V402.599H1421.96C1424.07 411.913 1423.86 431.386 1406.15 434.761H1392.44V368.855H1364.49V380.454H1442V358.31H1417.22V368.855" stroke="#757C87" stroke-width="2"/>
</svg>
