<svg width="1605" height="900" viewBox="0 0 1605 900" fill="none" xmlns="http://www.w3.org/2000/svg">
<path d="M51 899.397V0" stroke="white" stroke-opacity="0.3" stroke-width="0.6016"/>
<path d="M111.161 899.397V0" stroke="white" stroke-opacity="0.3" stroke-width="0.6016"/>
<path d="M171.321 899.397V0" stroke="white" stroke-opacity="0.3" stroke-width="0.6016"/>
<path d="M231.481 899.397V0" stroke="white" stroke-opacity="0.3" stroke-width="0.6016"/>
<path d="M291.641 899.397V0" stroke="white" stroke-opacity="0.3" stroke-width="0.6016"/>
<path d="M351.802 899.397V0" stroke="white" stroke-opacity="0.3" stroke-width="0.6016"/>
<path d="M411.961 899.397V0" stroke="white" stroke-opacity="0.3" stroke-width="0.6016"/>
<path d="M472.121 899.397V0" stroke="white" stroke-opacity="0.3" stroke-width="0.6016"/>
<path d="M532.28 899.397V0" stroke="white" stroke-opacity="0.3" stroke-width="0.6016"/>
<path d="M592.44 899.397V0" stroke="white" stroke-opacity="0.3" stroke-width="0.6016"/>
<path d="M652.601 899.397V0" stroke="white" stroke-opacity="0.3" stroke-width="0.6016"/>
<path d="M712.761 899.397V0" stroke="white" stroke-opacity="0.3" stroke-width="0.6016"/>
<path d="M772.921 899.397V0" stroke="white" stroke-opacity="0.3" stroke-width="0.6016"/>
<path d="M833.081 899.397V0" stroke="white" stroke-opacity="0.3" stroke-width="0.6016"/>
<path d="M893.241 899.397V0" stroke="white" stroke-opacity="0.3" stroke-width="0.6016"/>
<path d="M953.4 899.397V0" stroke="white" stroke-opacity="0.3" stroke-width="0.6016"/>
<path d="M1013.56 899.397V0" stroke="white" stroke-opacity="0.3" stroke-width="0.6016"/>
<path d="M1073.72 899.397V0" stroke="white" stroke-opacity="0.3" stroke-width="0.6016"/>
<path d="M1133.88 899.397V0" stroke="white" stroke-opacity="0.3" stroke-width="0.6016"/>
<path d="M1194.04 899.397V0" stroke="white" stroke-opacity="0.3" stroke-width="0.6016"/>
<path d="M1254.2 899.397V0" stroke="white" stroke-opacity="0.3" stroke-width="0.6016"/>
<path d="M1314.36 899.397V0" stroke="white" stroke-opacity="0.3" stroke-width="0.6016"/>
<path d="M1374.52 899.397V0" stroke="white" stroke-opacity="0.3" stroke-width="0.6016"/>
<path d="M1434.68 899.397V0" stroke="white" stroke-opacity="0.3" stroke-width="0.6016"/>
<path d="M1494.84 899.397V0" stroke="white" stroke-opacity="0.3" stroke-width="0.6016"/>
<path d="M1554.84 899.397V0" stroke="white" stroke-opacity="0.3" stroke-width="0.6016"/>
<path d="M0 60.6997H1605" stroke="white" stroke-opacity="0.3" stroke-width="0.6016"/>
<path d="M0 119.7H1605" stroke="white" stroke-opacity="0.3" stroke-width="0.6016"/>
<path d="M0 180.7H1605" stroke="white" stroke-opacity="0.3" stroke-width="0.6016"/>
<path d="M0 240.7H1605" stroke="white" stroke-opacity="0.3" stroke-width="0.6016"/>
<path d="M0 301.7H1605" stroke="white" stroke-opacity="0.3" stroke-width="0.6016"/>
<path d="M0 360.7H1605" stroke="white" stroke-opacity="0.3" stroke-width="0.6016"/>
<path d="M0 420.7H1605" stroke="white" stroke-opacity="0.3" stroke-width="0.6016"/>
<path d="M0 481.7H1605" stroke="white" stroke-opacity="0.3" stroke-width="0.6016"/>
<path d="M0 541.7H1605" stroke="white" stroke-opacity="0.3" stroke-width="0.6016"/>
<path d="M0 601.7H1605" stroke="white" stroke-opacity="0.3" stroke-width="0.6016"/>
<path d="M0 661.7H1605" stroke="white" stroke-opacity="0.3" stroke-width="0.6016"/>
<path d="M0 722.7H1605" stroke="white" stroke-opacity="0.3" stroke-width="0.6016"/>
<path d="M0 782.7H1605" stroke="white" stroke-opacity="0.3" stroke-width="0.6016"/>
<path d="M0 841.7H1605" stroke="white" stroke-opacity="0.3" stroke-width="0.6016"/>
</svg>
