<svg width="1218" height="580" viewBox="0 0 1218 580" fill="none" xmlns="http://www.w3.org/2000/svg">
<path d="M0.338379 287L1217.34 287" stroke="#FDFEFD" stroke-opacity="0.3" stroke-width="0.676851"/>
<path d="M0.338379 355H1217.34" stroke="#FDFEFD" stroke-opacity="0.3" stroke-width="0.676851"/>
<path d="M0.338379 422H1217.34" stroke="#FDFEFD" stroke-opacity="0.3" stroke-width="0.676851"/>
<path d="M0.338379 490H1217.34" stroke="#FDFEFD" stroke-opacity="0.3" stroke-width="0.676851"/>
<path d="M0.338379 558H1217.34" stroke="#FDFEFD" stroke-opacity="0.3" stroke-width="0.676851"/>
<path d="M0.338379 16H1217.34" stroke="#FDFEFD" stroke-opacity="0.3" stroke-width="0.676851"/>
<path d="M0.338379 84H1217.34" stroke="#FDFEFD" stroke-opacity="0.3" stroke-width="0.676851"/>
<path d="M0.338379 151H1217.34" stroke="#FDFEFD" stroke-opacity="0.3" stroke-width="0.676851"/>
<path d="M0.338379 219H1217.34" stroke="#FDFEFD" stroke-opacity="0.3" stroke-width="0.676851"/>
<path d="M67.5601 580V0" stroke="#FDFEFD" stroke-opacity="0.3" stroke-width="0.676851"/>
<path d="M0.338379 580V0" stroke="#FDFEFD" stroke-opacity="0.3" stroke-width="0.676851"/>
<path d="M135.56 580V0" stroke="#FDFEFD" stroke-opacity="0.3" stroke-width="0.676851"/>
<path d="M203.56 580V0" stroke="#FDFEFD" stroke-opacity="0.3" stroke-width="0.676851"/>
<path d="M270.56 580V0" stroke="#FDFEFD" stroke-opacity="0.3" stroke-width="0.676851"/>
<path d="M338.56 580V0" stroke="#FDFEFD" stroke-opacity="0.3" stroke-width="0.676851"/>
<path d="M406.56 580V0" stroke="#FDFEFD" stroke-opacity="0.3" stroke-width="0.676851"/>
<path d="M474.56 580V0" stroke="#FDFEFD" stroke-opacity="0.3" stroke-width="0.676851"/>
<path d="M541.56 580V0" stroke="#FDFEFD" stroke-opacity="0.3" stroke-width="0.676851"/>
<path d="M609.56 580V0" stroke="#FDFEFD" stroke-opacity="0.3" stroke-width="0.676851"/>
<path d="M677.56 580V0" stroke="#FDFEFD" stroke-opacity="0.3" stroke-width="0.676851"/>
<path d="M744.56 580V0" stroke="#FDFEFD" stroke-opacity="0.3" stroke-width="0.676851"/>
<path d="M812.56 580V0" stroke="#FDFEFD" stroke-opacity="0.3" stroke-width="0.676851"/>
<path d="M880.56 580V0" stroke="#FDFEFD" stroke-opacity="0.3" stroke-width="0.676851"/>
<path d="M947.56 580V0" stroke="#FDFEFD" stroke-opacity="0.3" stroke-width="0.676851"/>
<path d="M1015.56 580V0" stroke="#FDFEFD" stroke-opacity="0.3" stroke-width="0.676851"/>
<path d="M1083.56 580V0" stroke="#FDFEFD" stroke-opacity="0.3" stroke-width="0.676851"/>
<path d="M1150.56 580V0" stroke="#FDFEFD" stroke-opacity="0.3" stroke-width="0.676851"/>
<path d="M1217.56 580V0" stroke="#FDFEFD" stroke-opacity="0.3" stroke-width="0.676851"/>
</svg>
