<svg width="1565" height="962" viewBox="0 0 1565 962" fill="none" xmlns="http://www.w3.org/2000/svg">
<path d="M0 332L1565 332" stroke="#FDFEFD" stroke-opacity="0.3" stroke-width="0.676851"/>
<path d="M0 400H1565" stroke="#FDFEFD" stroke-opacity="0.3" stroke-width="0.676851"/>
<path d="M0 467H1565" stroke="#FDFEFD" stroke-opacity="0.3" stroke-width="0.676851"/>
<path d="M0 535H1565" stroke="#FDFEFD" stroke-opacity="0.3" stroke-width="0.676851"/>
<path d="M0 603H1565" stroke="#FDFEFD" stroke-opacity="0.3" stroke-width="0.676851"/>
<path d="M0 671H1565" stroke="#FDFEFD" stroke-opacity="0.3" stroke-width="0.676851"/>
<path d="M0 739H1565" stroke="#FDFEFD" stroke-opacity="0.3" stroke-width="0.676851"/>
<path d="M0 807H1565" stroke="#FDFEFD" stroke-opacity="0.3" stroke-width="0.676851"/>
<path d="M0 875H1565" stroke="#FDFEFD" stroke-opacity="0.3" stroke-width="0.676851"/>
<path d="M0 943H1565" stroke="#FDFEFD" stroke-opacity="0.3" stroke-width="0.676851"/>
<path d="M0 61H1565" stroke="#FDFEFD" stroke-opacity="0.3" stroke-width="0.676851"/>
<path d="M0 129H1565" stroke="#FDFEFD" stroke-opacity="0.3" stroke-width="0.676851"/>
<path d="M0 196H1565" stroke="#FDFEFD" stroke-opacity="0.3" stroke-width="0.676851"/>
<path d="M0 264H1565" stroke="#FDFEFD" stroke-opacity="0.3" stroke-width="0.676851"/>
<path d="M47.2217 962V0" stroke="#FDFEFD" stroke-opacity="0.3" stroke-width="0.676851"/>
<path d="M115.222 962V0" stroke="#FDFEFD" stroke-opacity="0.3" stroke-width="0.676851"/>
<path d="M183.222 962V0" stroke="#FDFEFD" stroke-opacity="0.3" stroke-width="0.676851"/>
<path d="M250.222 962V0" stroke="#FDFEFD" stroke-opacity="0.3" stroke-width="0.676851"/>
<path d="M318.222 962V0" stroke="#FDFEFD" stroke-opacity="0.3" stroke-width="0.676851"/>
<path d="M386.222 962V0" stroke="#FDFEFD" stroke-opacity="0.3" stroke-width="0.676851"/>
<path d="M454.222 962V0" stroke="#FDFEFD" stroke-opacity="0.3" stroke-width="0.676851"/>
<path d="M521.222 962V0" stroke="#FDFEFD" stroke-opacity="0.3" stroke-width="0.676851"/>
<path d="M589.222 962V0" stroke="#FDFEFD" stroke-opacity="0.3" stroke-width="0.676851"/>
<path d="M657.222 962V0" stroke="#FDFEFD" stroke-opacity="0.3" stroke-width="0.676851"/>
<path d="M724.222 962V0" stroke="#FDFEFD" stroke-opacity="0.3" stroke-width="0.676851"/>
<path d="M792.222 962V0" stroke="#FDFEFD" stroke-opacity="0.3" stroke-width="0.676851"/>
<path d="M860.222 962V0" stroke="#FDFEFD" stroke-opacity="0.3" stroke-width="0.676851"/>
<path d="M927.222 962V0" stroke="#FDFEFD" stroke-opacity="0.3" stroke-width="0.676851"/>
<path d="M995.222 962V0" stroke="#FDFEFD" stroke-opacity="0.3" stroke-width="0.676851"/>
<path d="M1063.22 962V0" stroke="#FDFEFD" stroke-opacity="0.3" stroke-width="0.676851"/>
<path d="M1131.22 962V0" stroke="#FDFEFD" stroke-opacity="0.3" stroke-width="0.676851"/>
<path d="M1199.22 962V0" stroke="#FDFEFD" stroke-opacity="0.3" stroke-width="0.676851"/>
<path d="M1267.22 962V0" stroke="#FDFEFD" stroke-opacity="0.3" stroke-width="0.676851"/>
<path d="M1335.22 962V0" stroke="#FDFEFD" stroke-opacity="0.3" stroke-width="0.676851"/>
<path d="M1403.22 962V0" stroke="#FDFEFD" stroke-opacity="0.3" stroke-width="0.676851"/>
<path d="M1471.22 962V0" stroke="#FDFEFD" stroke-opacity="0.3" stroke-width="0.676851"/>
<path d="M1539.22 962V0" stroke="#FDFEFD" stroke-opacity="0.3" stroke-width="0.676851"/>
</svg>
