<svg width="28" height="23" viewBox="0 0 28 23" fill="none" xmlns="http://www.w3.org/2000/svg">
<path d="M23.9996 2.94574H21.0538V-7.05719e-05H23.9996V2.94574ZM21.0538 5.89155H18.108V2.94574H21.0538V5.89155ZM18.108 8.83736H15.1622V5.89155H18.108V8.83736ZM15.1622 11.7832H12.2163V8.83736H15.1622V11.7832ZM12.2163 14.729H9.27053V11.7832H12.2163V14.729ZM9.27053 17.6748H6.32472V14.729H9.27053V17.6748ZM6.32472 20.6206H3.37891V17.6748H6.32472V20.6206Z" fill="#0F0F0F"/>
<path d="M3.37932 2.94574H6.32513V-7.05719e-05H3.37932V2.94574ZM6.32513 5.89155H9.27095V2.94574H6.32513V5.89155ZM9.27095 8.83736H12.2168V5.89155H9.27095V8.83736ZM12.2168 11.7832H15.1626V8.83736H12.2168V11.7832ZM15.1626 14.729H18.1084V11.7832H15.1626V14.729ZM18.1084 17.6748H21.0542V14.729H18.1084V17.6748ZM21.0542 20.6206H24V17.6748H21.0542V20.6206Z" fill="#0F0F0F"/>
</svg>
