<svg width="85" height="71" viewBox="0 0 85 71" fill="none" xmlns="http://www.w3.org/2000/svg">
<path d="M75.0041 9.30189H65.7021V-2.28882e-05H75.0041V9.30189ZM65.7021 18.6038H56.4002V9.30189H65.7021V18.6038ZM56.4002 27.9057H47.0983V18.6038H56.4002V27.9057ZM47.0983 37.2076H37.7964V27.9057H47.0983V37.2076ZM37.7964 46.5096H28.4945V37.2076H37.7964V46.5096ZM28.4945 55.8115H19.1925V46.5096H28.4945V55.8115ZM19.1925 65.1134H9.89062V55.8115H19.1925V65.1134Z" fill="white"/>
<path d="M9.88657 9.30189H19.1885V-2.28882e-05H9.88657V9.30189ZM19.1885 18.6038H28.4904V9.30189H19.1885V18.6038ZM28.4904 27.9057H37.7923V18.6038H28.4904V27.9057ZM37.7923 37.2076H47.0942V27.9057H37.7923V37.2076ZM47.0942 46.5096H56.3962V37.2076H47.0942V46.5096ZM56.3962 55.8115H65.6981V46.5096H56.3962V55.8115ZM65.6981 65.1134H75V55.8115H65.6981V65.1134Z" fill="white"/>
</svg>
