<svg width="19" height="15" viewBox="0 0 19 15" fill="none" xmlns="http://www.w3.org/2000/svg">
<path d="M16.0009 1.98296H14.0179V-2.86102e-06H16.0009V1.98296ZM14.0179 3.96592H12.0349V1.98296H14.0179V3.96592ZM12.0349 5.94889H10.052V3.96592H12.0349V5.94889ZM10.052 7.93185H8.06901V5.94889H10.052V7.93185ZM8.06901 9.91481H6.08604V7.93185H8.06901V9.91481ZM6.08604 11.8978H4.10308V9.91481H6.08604V11.8978ZM4.10308 13.8807H2.12012V11.8978H4.10308V13.8807Z" fill="white"/>
<path d="M2.11926 1.98296H4.10222V-2.86102e-06H2.11926V1.98296ZM4.10222 3.96592H6.08519V1.98296H4.10222V3.96592ZM6.08519 5.94889H8.06815V3.96592H6.08519V5.94889ZM8.06815 7.93185H10.0511V5.94889H8.06815V7.93185ZM10.0511 9.91481H12.0341V7.93185H10.0511V9.91481ZM12.0341 11.8978H14.017V9.91481H12.0341V11.8978ZM14.017 13.8807H16V11.8978H14.017V13.8807Z" fill="white"/>
</svg>
