<svg width="44" height="37" viewBox="0 0 44 37" fill="none" xmlns="http://www.w3.org/2000/svg">
<path d="M39.0024 4.87549H34.127V0H39.0024V4.87549ZM34.127 9.75098H29.2515V4.87549H34.127V9.75098ZM29.2515 14.6265H24.376V9.75098H29.2515V14.6265ZM24.376 19.502H19.5005V14.6265H24.376V19.502ZM19.5005 24.3774H14.625V19.502H19.5005V24.3774ZM14.625 29.2529H9.74951V24.3774H14.625V29.2529ZM9.74951 34.1284H4.87402V29.2529H9.74951V34.1284Z" fill="white"/>
<path d="M4.87158 4.87549H9.74707V0H4.87158V4.87549ZM9.74707 9.75098H14.6226V4.87549H9.74707V9.75098ZM14.6226 14.6265H19.498V9.75098H14.6226V14.6265ZM19.498 19.502H24.3735V14.6265H19.498V19.502ZM24.3735 24.3774H29.249V19.502H24.3735V24.3774ZM29.249 29.2529H34.1245V24.3774H29.249V29.2529ZM34.1245 34.1284H39V29.2529H34.1245V34.1284Z" fill="white"/>
</svg>
