<svg width="1629" height="160" viewBox="0 0 1629 160" fill="none" xmlns="http://www.w3.org/2000/svg">
<rect x="0.582809" y="0.582809" width="158.524" height="158.524" stroke="#3B4554" stroke-width="1.16562"/>
<path d="M1.16602 158.524L158.525 1.16577" stroke="#3B4554" stroke-width="1.16562"/>
<path d="M158.524 158.524L1.16591 1.16577" stroke="#3B4554" stroke-width="1.16562"/>
<rect x="184.751" y="0.582809" width="158.524" height="158.524" stroke="#3B4554" stroke-width="1.16562"/>
<path d="M185.333 158.524L342.692 1.16577" stroke="#3B4554" stroke-width="1.16562"/>
<path d="M342.692 158.524L185.334 1.16577" stroke="#3B4554" stroke-width="1.16562"/>
<rect x="367.752" y="0.582809" width="158.524" height="158.524" stroke="#3B4554" stroke-width="1.16562"/>
<path d="M368.335 158.524L525.693 1.16577" stroke="#3B4554" stroke-width="1.16562"/>
<path d="M525.693 158.524L368.335 1.16577" stroke="#3B4554" stroke-width="1.16562"/>
<rect x="550.756" y="0.582809" width="158.524" height="158.524" stroke="#3B4554" stroke-width="1.16562"/>
<path d="M551.338 158.524L708.696 1.16577" stroke="#3B4554" stroke-width="1.16562"/>
<path d="M708.695 158.524L551.337 1.16577" stroke="#3B4554" stroke-width="1.16562"/>
<rect x="736.088" y="0.582809" width="158.524" height="158.524" stroke="#3B4554" stroke-width="1.16562"/>
<path d="M736.67 158.524L894.028 1.16577" stroke="#3B4554" stroke-width="1.16562"/>
<path d="M894.029 158.524L736.671 1.16577" stroke="#3B4554" stroke-width="1.16562"/>
<rect x="920.257" y="0.582809" width="158.524" height="158.524" stroke="#3B4554" stroke-width="1.16562"/>
<path d="M920.839 158.524L1078.2 1.16577" stroke="#3B4554" stroke-width="1.16562"/>
<path d="M1078.2 158.524L920.838 1.16577" stroke="#3B4554" stroke-width="1.16562"/>
<rect x="1103.26" y="0.582809" width="158.524" height="158.524" stroke="#3B4554" stroke-width="1.16562"/>
<path d="M1103.84 158.524L1261.2 1.16577" stroke="#3B4554" stroke-width="1.16562"/>
<path d="M1261.2 158.524L1103.84 1.16577" stroke="#3B4554" stroke-width="1.16562"/>
<rect x="1286.26" y="0.582809" width="158.524" height="158.524" stroke="#3B4554" stroke-width="1.16562"/>
<path d="M1286.84 158.524L1444.2 1.16577" stroke="#3B4554" stroke-width="1.16562"/>
<path d="M1444.2 158.524L1286.84 1.16577" stroke="#3B4554" stroke-width="1.16562"/>
<rect x="1469.26" y="0.582809" width="158.524" height="158.524" stroke="#3B4554" stroke-width="1.16562"/>
<path d="M1469.84 158.524L1627.2 1.16577" stroke="#3B4554" stroke-width="1.16562"/>
<path d="M1627.2 158.524L1469.84 1.16577" stroke="#3B4554" stroke-width="1.16562"/>
</svg>
